<svg width="32" height="32" viewBox="0 0 32 32" fill="none" xmlns="http://www.w3.org/2000/svg">
<path d="M8.50199 25.7819L8.49365 25.7902L8.48562 25.7989C7.93374 26.3913 7.44248 26.7456 7.04062 26.9192C6.64529 27.0898 6.37735 27.0712 6.1988 26.9943C6.01538 26.9153 5.80059 26.7206 5.62509 26.2903C5.44871 25.8578 5.33341 25.2329 5.33341 24.4V9.38663C5.33341 6.68979 5.66424 5.26449 6.41025 4.46708C7.14146 3.68548 8.44141 3.33329 10.9601 3.33329H21.0401C23.559 3.33329 24.8584 3.6856 25.5878 4.46665C26.3319 5.26339 26.6601 6.68806 26.6534 9.38497V9.38663V24.3866C26.6534 25.2201 26.5388 25.8453 26.3632 26.278C26.1884 26.7086 25.9746 26.9026 25.7926 26.9812C25.6153 27.0577 25.3481 27.0767 24.9516 26.9057C24.5488 26.732 24.0558 26.3774 23.5005 25.7847C22.8286 25.0641 21.9509 24.7062 21.0672 24.7543C20.1834 24.8024 19.3499 25.2535 18.7601 26.04L18.7596 26.0406L17.4152 27.8376C17.4149 27.8381 17.4145 27.8385 17.4141 27.839C16.9813 28.41 16.4612 28.6433 15.9934 28.6433C15.5256 28.6433 15.0055 28.41 14.5727 27.839C14.5723 27.8385 14.572 27.8381 14.5716 27.8376L13.2274 26.0409C13.2274 26.0408 13.2273 26.0407 13.2272 26.0406C12.0326 24.4425 9.88394 24.3243 8.50868 25.7752L8.50199 25.7819ZM12.3334 15H19.6667C20.5816 15 21.3334 14.2481 21.3334 13.3333C21.3334 12.4184 20.5816 11.6666 19.6667 11.6666H12.3334C11.4186 11.6666 10.6667 12.4184 10.6667 13.3333C10.6667 14.2481 11.4186 15 12.3334 15Z" fill="#E6B014" stroke="#E6B014" stroke-width="1.33333"/>
</svg>
