<svg width="16" height="16" viewBox="0 0 16 16" fill="none" xmlns="http://www.w3.org/2000/svg">
<path d="M8.13698 10.6666C7.56813 10.6666 7.07316 10.5584 6.65206 10.3418C6.23097 10.1183 5.90591 9.80395 5.6769 9.3988C5.44788 8.99365 5.33337 8.51864 5.33337 7.97378C5.33337 7.56165 5.39617 7.19492 5.52176 6.87359C5.65474 6.54528 5.84312 6.26935 6.08691 6.04582C6.3307 5.8153 6.62621 5.64067 6.97343 5.52192C7.32064 5.39618 7.70849 5.33331 8.13698 5.33331C8.38077 5.33331 8.64303 5.36475 8.92376 5.42762C9.21187 5.49048 9.48152 5.59526 9.7327 5.74196C9.8509 5.81181 9.92847 5.89564 9.96541 5.99343C10.0023 6.09123 10.0097 6.19251 9.98757 6.29729C9.96541 6.39509 9.91739 6.48241 9.84351 6.55925C9.77703 6.6291 9.69207 6.6745 9.58864 6.69546C9.48522 6.70943 9.37071 6.68498 9.24512 6.62211C9.08259 6.5313 8.91637 6.46494 8.74645 6.42303C8.57654 6.37413 8.41401 6.34969 8.25887 6.34969C8.01508 6.34969 7.80084 6.3881 7.61615 6.46494C7.43146 6.5348 7.27262 6.63958 7.13965 6.77929C7.01406 6.91201 6.91802 7.07966 6.85153 7.28223C6.78504 7.48481 6.7518 7.71882 6.7518 7.98426C6.7518 8.50118 6.88108 8.90983 7.13965 9.2102C7.4056 9.50358 7.77868 9.65027 8.25887 9.65027C8.41401 9.65027 8.57284 9.62932 8.73537 9.58741C8.90529 9.54549 9.0752 9.47913 9.24512 9.38832C9.37071 9.32545 9.48152 9.3045 9.57756 9.32545C9.68099 9.34641 9.76595 9.39531 9.83243 9.47215C9.89892 9.542 9.93955 9.62932 9.95433 9.7341C9.9691 9.83189 9.95433 9.92969 9.91 10.0275C9.87307 10.1253 9.79919 10.2056 9.68837 10.2685C9.44458 10.4082 9.18602 10.5095 8.91268 10.5723C8.63933 10.6352 8.38077 10.6666 8.13698 10.6666Z" fill="white"/>
<path d="M8 5V11" stroke="white" stroke-linecap="round" stroke-linejoin="round"/>
<path d="M14.6667 7.99998C14.6667 11.68 11.68 14.6666 8.00004 14.6666C4.32004 14.6666 1.33337 11.68 1.33337 7.99998C1.33337 4.31998 4.32004 1.33331 8.00004 1.33331" stroke="white" stroke-linecap="round" stroke-linejoin="round"/>
<path d="M14.6667 3.99998V1.33331H12" stroke="white" stroke-linecap="round" stroke-linejoin="round"/>
<path d="M11.3334 4.66665L14.6667 1.33331" stroke="white" stroke-linecap="round" stroke-linejoin="round"/>
</svg>
