<svg width="32" height="32" viewBox="0 0 32 32" fill="none" xmlns="http://www.w3.org/2000/svg">
<path d="M8.50189 25.7819L8.49356 25.7902L8.48553 25.7989C7.93365 26.3913 7.44238 26.7456 7.04052 26.9192C6.6452 27.0898 6.37725 27.0712 6.19871 26.9943C6.01529 26.9153 5.8005 26.7206 5.625 26.2903C5.44862 25.8578 5.33332 25.2329 5.33332 24.4V9.38663C5.33332 6.68979 5.66415 5.26449 6.41016 4.46708C7.14137 3.68548 8.44132 3.33329 10.96 3.33329H21.04C23.559 3.33329 24.8583 3.6856 25.5878 4.46665C26.3318 5.26339 26.66 6.68806 26.6533 9.38497V9.38663V24.3866C26.6533 25.2201 26.5387 25.8453 26.3631 26.278C26.1883 26.7086 25.9745 26.9026 25.7925 26.9812C25.6153 27.0577 25.348 27.0767 24.9515 26.9057C24.5487 26.732 24.0557 26.3774 23.5004 25.7847C22.8285 25.0641 21.9508 24.7062 21.0671 24.7543C20.1833 24.8024 19.3499 25.2535 18.76 26.04L18.7595 26.0406L17.4151 27.8376C17.4148 27.8381 17.4144 27.8385 17.414 27.839C16.9812 28.41 16.4611 28.6433 15.9933 28.6433C15.5255 28.6433 15.0054 28.41 14.5726 27.839C14.5722 27.8385 14.5719 27.8381 14.5715 27.8376L13.2273 26.0409C13.2273 26.0408 13.2272 26.0407 13.2271 26.0406C12.0325 24.4425 9.88385 24.3243 8.50859 25.7752L8.50189 25.7819ZM12.3333 15H19.6667C20.5815 15 21.3333 14.2481 21.3333 13.3333C21.3333 12.4184 20.5815 11.6666 19.6667 11.6666H12.3333C11.4185 11.6666 10.6667 12.4184 10.6667 13.3333C10.6667 14.2481 11.4185 15 12.3333 15Z" fill="#022E64" stroke="#022E64" stroke-width="1.33333"/>
</svg>
