<svg width="32" height="32" viewBox="0 0 32 32" fill="none" xmlns="http://www.w3.org/2000/svg">
<path d="M13.3903 4.20018L13.3908 4.19976C14.8365 3.03865 17.1569 3.04547 18.6242 4.21437C18.6243 4.21448 18.6244 4.21458 18.6246 4.21469L27.3521 11.1967C27.3529 11.1973 27.3537 11.198 27.3544 11.1986C27.8574 11.6095 28.2929 12.2525 28.5739 12.9879C28.8548 13.7229 28.9595 14.4931 28.8617 15.1346L27.1832 25.1793C27.1831 25.1799 27.183 25.1805 27.1829 25.1812C26.85 27.0917 24.991 28.6667 23.0667 28.6667H8.93336C6.98074 28.6667 5.16343 27.1302 4.83067 25.1953C4.83059 25.1948 4.83051 25.1944 4.83043 25.1939L3.15092 15.1434L3.15066 15.1419C3.04113 14.4957 3.13944 13.7239 3.41961 12.9892C3.69976 12.2545 4.14073 11.6121 4.65582 11.2011L4.65698 11.2002L13.3903 4.20018ZM16 25.6667C16.9149 25.6667 17.6667 24.9148 17.6667 24V20C17.6667 19.0851 16.9149 18.3333 16 18.3333C15.0852 18.3333 14.3334 19.0851 14.3334 20V24C14.3334 24.9148 15.0852 25.6667 16 25.6667Z" fill="#E6B014" stroke="#E6B014" stroke-width="1.33333"/>
</svg>
